<?xml version="1.0" encoding="us-ascii" standalone="no"?><svg xmlns="http://www.w3.org/2000/svg" xmlns:xlink="http://www.w3.org/1999/xlink" contentStyleType="text/css" height="534px" preserveAspectRatio="none" style="width:803px;height:534px;background:#FFFFFF;" version="1.1" viewBox="0 0 803 534" width="803px" zoomAndPan="magnify"><defs/><g><!--class Edificio--><g id="elem_Edificio"><rect codeLine="11" fill="#F1F1F1" height="121.4844" id="Edificio" rx="2.5" ry="2.5" style="stroke:#181818;stroke-width:0.5;" width="106" x="13" y="55.406"/><ellipse cx="37.45" cy="71.406" fill="#ADD1B2" rx="11" ry="11" style="stroke:#181818;stroke-width:1.0;"/><path d="M36.2469,72.281 L37.7,72.281 L37.7,72.3904 C37.7,72.7966 37.7313,72.9529 37.8094,73.1091 C37.9656,73.3591 38.2469,73.5154 38.5438,73.5154 C38.7938,73.5154 39.0594,73.3747 39.2156,73.156 C39.3406,72.9997 39.3719,72.8435 39.3719,72.3904 L39.3719,70.4685 C39.3719,70.3122 39.3719,70.2654 39.3563,70.1091 C39.2938,69.6404 38.9813,69.3279 38.5281,69.3279 C38.2781,69.3279 38.0125,69.4685 37.8406,69.6872 C37.7313,69.8591 37.7,70.0154 37.7,70.4685 L37.7,70.5935 L36.2469,70.5935 L36.2469,68.1872 L40.2313,68.1872 L40.2313,69.0466 C40.2313,69.4529 40.2625,69.6247 40.3406,69.781 C40.5125,70.031 40.7938,70.1872 41.075,70.1872 C41.3406,70.1872 41.6063,70.0466 41.7781,69.8279 C41.8875,69.656 41.9188,69.5154 41.9188,69.0466 L41.9188,66.4997 L34.2938,66.4997 C33.8563,66.4997 33.7313,66.5154 33.575,66.6091 C33.325,66.7654 33.1688,67.0622 33.1688,67.3435 C33.1688,67.6247 33.3094,67.8747 33.5281,68.0466 C33.6844,68.156 33.8719,68.1872 34.2938,68.1872 L34.5438,68.1872 L34.5438,74.7029 L34.2938,74.7029 C33.8875,74.7029 33.7313,74.7185 33.575,74.8279 C33.325,74.9997 33.1688,75.2654 33.1688,75.5622 C33.1688,75.8279 33.3094,76.0779 33.5281,76.2341 C33.6688,76.3591 33.9031,76.406 34.2938,76.406 L42.2938,76.406 L42.2938,73.8279 C42.2938,73.3904 42.2625,73.2497 42.1844,73.0935 C42.0125,72.8435 41.7313,72.6872 41.45,72.6872 C41.1844,72.6872 40.9188,72.7966 40.7469,73.0466 C40.6375,73.2029 40.6063,73.3435 40.6063,73.8279 L40.6063,74.7029 L36.2469,74.7029 L36.2469,72.281 Z " fill="#000000"/><text fill="#000000" font-family="sans-serif" font-size="14" lengthAdjust="spacing" textLength="53" x="53.55" y="76.2527">Edificio</text><line style="stroke:#181818;stroke-width:0.5;" x1="14" x2="118" y1="87.406" y2="87.406"/><text fill="#000000" font-family="sans-serif" font-size="14" lengthAdjust="spacing" textLength="19" x="19" y="104.4011">-id</text><text fill="#000000" font-family="sans-serif" font-size="14" lengthAdjust="spacing" textLength="54" x="19" y="120.698">-codigo</text><text fill="#000000" font-family="sans-serif" font-size="14" lengthAdjust="spacing" textLength="47" x="19" y="136.9949">-nome</text><text fill="#000000" font-family="sans-serif" font-size="14" lengthAdjust="spacing" textLength="74" x="19" y="153.2917">-descricao</text><text fill="#000000" font-family="sans-serif" font-size="14" lengthAdjust="spacing" textLength="94" x="19" y="169.5886">-pisoMaxSize</text></g><!--class Piso--><g id="elem_Piso"><rect codeLine="20" fill="#F1F1F1" height="121.4844" id="Piso" rx="2.5" ry="2.5" style="stroke:#181818;stroke-width:0.5;" width="178" x="319" y="55.406"/><ellipse cx="389.25" cy="71.406" fill="#ADD1B2" rx="11" ry="11" style="stroke:#181818;stroke-width:1.0;"/><path d="M388.0469,72.281 L389.5,72.281 L389.5,72.3904 C389.5,72.7966 389.5313,72.9529 389.6094,73.1091 C389.7656,73.3591 390.0469,73.5154 390.3438,73.5154 C390.5938,73.5154 390.8594,73.3747 391.0156,73.156 C391.1406,72.9997 391.1719,72.8435 391.1719,72.3904 L391.1719,70.4685 C391.1719,70.3122 391.1719,70.2654 391.1563,70.1091 C391.0938,69.6404 390.7813,69.3279 390.3281,69.3279 C390.0781,69.3279 389.8125,69.4685 389.6406,69.6872 C389.5313,69.8591 389.5,70.0154 389.5,70.4685 L389.5,70.5935 L388.0469,70.5935 L388.0469,68.1872 L392.0313,68.1872 L392.0313,69.0466 C392.0313,69.4529 392.0625,69.6247 392.1406,69.781 C392.3125,70.031 392.5938,70.1872 392.875,70.1872 C393.1406,70.1872 393.4063,70.0466 393.5781,69.8279 C393.6875,69.656 393.7188,69.5154 393.7188,69.0466 L393.7188,66.4997 L386.0938,66.4997 C385.6563,66.4997 385.5313,66.5154 385.375,66.6091 C385.125,66.7654 384.9688,67.0622 384.9688,67.3435 C384.9688,67.6247 385.1094,67.8747 385.3281,68.0466 C385.4844,68.156 385.6719,68.1872 386.0938,68.1872 L386.3438,68.1872 L386.3438,74.7029 L386.0938,74.7029 C385.6875,74.7029 385.5313,74.7185 385.375,74.8279 C385.125,74.9997 384.9688,75.2654 384.9688,75.5622 C384.9688,75.8279 385.1094,76.0779 385.3281,76.2341 C385.4688,76.3591 385.7031,76.406 386.0938,76.406 L394.0938,76.406 L394.0938,73.8279 C394.0938,73.3904 394.0625,73.2497 393.9844,73.0935 C393.8125,72.8435 393.5313,72.6872 393.25,72.6872 C392.9844,72.6872 392.7188,72.7966 392.5469,73.0466 C392.4375,73.2029 392.4063,73.3435 392.4063,73.8279 L392.4063,74.7029 L388.0469,74.7029 L388.0469,72.281 Z " fill="#000000"/><text fill="#000000" font-family="sans-serif" font-size="14" lengthAdjust="spacing" textLength="29" x="409.75" y="76.2527">Piso</text><line style="stroke:#181818;stroke-width:0.5;" x1="320" x2="496" y1="87.406" y2="87.406"/><text fill="#000000" font-family="sans-serif" font-size="14" lengthAdjust="spacing" textLength="19" x="325" y="104.4011">-id</text><text fill="#000000" font-family="sans-serif" font-size="14" lengthAdjust="spacing" textLength="59" x="325" y="120.698">-edificio</text><text fill="#000000" font-family="sans-serif" font-size="14" lengthAdjust="spacing" textLength="36" x="325" y="136.9949">-piso</text><text fill="#000000" font-family="sans-serif" font-size="14" lengthAdjust="spacing" textLength="74" x="325" y="153.2917">-descricao</text><text fill="#000000" font-family="sans-serif" font-size="14" lengthAdjust="spacing" textLength="166" x="325" y="169.5886">-passagens [passagem]</text></g><!--class Elevador--><g id="elem_Elevador"><rect codeLine="28" fill="#F1F1F1" height="105.1875" id="Elevador" rx="2.5" ry="2.5" style="stroke:#181818;stroke-width:0.5;" width="99" x="169.5" y="63.406"/><ellipse cx="186.75" cy="79.406" fill="#ADD1B2" rx="11" ry="11" style="stroke:#181818;stroke-width:1.0;"/><path d="M185.5469,80.281 L187,80.281 L187,80.3904 C187,80.7966 187.0313,80.9529 187.1094,81.1091 C187.2656,81.3591 187.5469,81.5154 187.8438,81.5154 C188.0938,81.5154 188.3594,81.3747 188.5156,81.156 C188.6406,80.9997 188.6719,80.8435 188.6719,80.3904 L188.6719,78.4685 C188.6719,78.3122 188.6719,78.2654 188.6563,78.1091 C188.5938,77.6404 188.2813,77.3279 187.8281,77.3279 C187.5781,77.3279 187.3125,77.4685 187.1406,77.6872 C187.0313,77.8591 187,78.0154 187,78.4685 L187,78.5935 L185.5469,78.5935 L185.5469,76.1872 L189.5313,76.1872 L189.5313,77.0466 C189.5313,77.4529 189.5625,77.6247 189.6406,77.781 C189.8125,78.031 190.0938,78.1872 190.375,78.1872 C190.6406,78.1872 190.9063,78.0466 191.0781,77.8279 C191.1875,77.656 191.2188,77.5154 191.2188,77.0466 L191.2188,74.4997 L183.5938,74.4997 C183.1563,74.4997 183.0313,74.5154 182.875,74.6091 C182.625,74.7654 182.4688,75.0622 182.4688,75.3435 C182.4688,75.6247 182.6094,75.8747 182.8281,76.0466 C182.9844,76.156 183.1719,76.1872 183.5938,76.1872 L183.8438,76.1872 L183.8438,82.7029 L183.5938,82.7029 C183.1875,82.7029 183.0313,82.7185 182.875,82.8279 C182.625,82.9997 182.4688,83.2654 182.4688,83.5622 C182.4688,83.8279 182.6094,84.0779 182.8281,84.2341 C182.9688,84.3591 183.2031,84.406 183.5938,84.406 L191.5938,84.406 L191.5938,81.8279 C191.5938,81.3904 191.5625,81.2497 191.4844,81.0935 C191.3125,80.8435 191.0313,80.6872 190.75,80.6872 C190.4844,80.6872 190.2188,80.7966 190.0469,81.0466 C189.9375,81.2029 189.9063,81.3435 189.9063,81.8279 L189.9063,82.7029 L185.5469,82.7029 L185.5469,80.281 Z " fill="#000000"/><text fill="#000000" font-family="sans-serif" font-size="14" lengthAdjust="spacing" textLength="62" x="201.25" y="84.2527">Elevador</text><line style="stroke:#181818;stroke-width:0.5;" x1="170.5" x2="267.5" y1="95.406" y2="95.406"/><text fill="#000000" font-family="sans-serif" font-size="14" lengthAdjust="spacing" textLength="19" x="175.5" y="112.4011">-id</text><text fill="#000000" font-family="sans-serif" font-size="14" lengthAdjust="spacing" textLength="81" x="175.5" y="128.698">-elevadorId</text><text fill="#000000" font-family="sans-serif" font-size="14" lengthAdjust="spacing" textLength="59" x="175.5" y="144.9949">-edificio</text><text fill="#000000" font-family="sans-serif" font-size="14" lengthAdjust="spacing" textLength="87" x="175.5" y="161.2917">-pisos [piso]</text></g><!--class Passagem--><g id="elem_Passagem"><rect codeLine="37" fill="#F1F1F1" height="72.5938" id="Passagem" rx="2.5" ry="2.5" style="stroke:#181818;stroke-width:0.5;" width="204" x="7" y="275.406"/><ellipse cx="69.25" cy="291.406" fill="#ADD1B2" rx="11" ry="11" style="stroke:#181818;stroke-width:1.0;"/><path d="M68.0469,292.281 L69.5,292.281 L69.5,292.3904 C69.5,292.7966 69.5313,292.9529 69.6094,293.1091 C69.7656,293.3591 70.0469,293.5154 70.3438,293.5154 C70.5938,293.5154 70.8594,293.3747 71.0156,293.156 C71.1406,292.9997 71.1719,292.8435 71.1719,292.3904 L71.1719,290.4685 C71.1719,290.3122 71.1719,290.2654 71.1563,290.1091 C71.0938,289.6404 70.7813,289.3279 70.3281,289.3279 C70.0781,289.3279 69.8125,289.4685 69.6406,289.6872 C69.5313,289.8591 69.5,290.0154 69.5,290.4685 L69.5,290.5935 L68.0469,290.5935 L68.0469,288.1872 L72.0313,288.1872 L72.0313,289.0466 C72.0313,289.4529 72.0625,289.6247 72.1406,289.781 C72.3125,290.031 72.5938,290.1872 72.875,290.1872 C73.1406,290.1872 73.4063,290.0466 73.5781,289.8279 C73.6875,289.656 73.7188,289.5154 73.7188,289.0466 L73.7188,286.4997 L66.0938,286.4997 C65.6563,286.4997 65.5313,286.5154 65.375,286.6091 C65.125,286.7654 64.9688,287.0622 64.9688,287.3435 C64.9688,287.6247 65.1094,287.8747 65.3281,288.0466 C65.4844,288.156 65.6719,288.1872 66.0938,288.1872 L66.3438,288.1872 L66.3438,294.7029 L66.0938,294.7029 C65.6875,294.7029 65.5313,294.7185 65.375,294.8279 C65.125,294.9997 64.9688,295.2654 64.9688,295.5622 C64.9688,295.8279 65.1094,296.0779 65.3281,296.2341 C65.4688,296.3591 65.7031,296.406 66.0938,296.406 L74.0938,296.406 L74.0938,293.8279 C74.0938,293.3904 74.0625,293.2497 73.9844,293.0935 C73.8125,292.8435 73.5313,292.6872 73.25,292.6872 C72.9844,292.6872 72.7188,292.7966 72.5469,293.0466 C72.4375,293.2029 72.4063,293.3435 72.4063,293.8279 L72.4063,294.7029 L68.0469,294.7029 L68.0469,292.281 Z " fill="#000000"/><text fill="#000000" font-family="sans-serif" font-size="14" lengthAdjust="spacing" textLength="71" x="89.75" y="296.2527">Passagem</text><line style="stroke:#181818;stroke-width:0.5;" x1="8" x2="210" y1="307.406" y2="307.406"/><text fill="#000000" font-family="sans-serif" font-size="14" lengthAdjust="spacing" textLength="19" x="13" y="324.4011">-id</text><text fill="#000000" font-family="sans-serif" font-size="14" lengthAdjust="spacing" textLength="192" x="13" y="340.698">-connection [edificio, piso]</text></g><!--class Sala--><g id="elem_Sala"><rect codeLine="43" fill="#F1F1F1" height="137.7813" id="Sala" rx="2.5" ry="2.5" style="stroke:#181818;stroke-width:0.5;" width="86" x="547" y="46.906"/><ellipse cx="573.25" cy="62.906" fill="#ADD1B2" rx="11" ry="11" style="stroke:#181818;stroke-width:1.0;"/><path d="M572.0469,63.781 L573.5,63.781 L573.5,63.8904 C573.5,64.2966 573.5313,64.4529 573.6094,64.6091 C573.7656,64.8591 574.0469,65.0154 574.3438,65.0154 C574.5938,65.0154 574.8594,64.8747 575.0156,64.656 C575.1406,64.4997 575.1719,64.3435 575.1719,63.8904 L575.1719,61.9685 C575.1719,61.8122 575.1719,61.7654 575.1563,61.6091 C575.0938,61.1404 574.7813,60.8279 574.3281,60.8279 C574.0781,60.8279 573.8125,60.9685 573.6406,61.1872 C573.5313,61.3591 573.5,61.5154 573.5,61.9685 L573.5,62.0935 L572.0469,62.0935 L572.0469,59.6872 L576.0313,59.6872 L576.0313,60.5466 C576.0313,60.9529 576.0625,61.1247 576.1406,61.281 C576.3125,61.531 576.5938,61.6872 576.875,61.6872 C577.1406,61.6872 577.4063,61.5466 577.5781,61.3279 C577.6875,61.156 577.7188,61.0154 577.7188,60.5466 L577.7188,57.9997 L570.0938,57.9997 C569.6563,57.9997 569.5313,58.0154 569.375,58.1091 C569.125,58.2654 568.9688,58.5622 568.9688,58.8435 C568.9688,59.1247 569.1094,59.3747 569.3281,59.5466 C569.4844,59.656 569.6719,59.6872 570.0938,59.6872 L570.3438,59.6872 L570.3438,66.2029 L570.0938,66.2029 C569.6875,66.2029 569.5313,66.2185 569.375,66.3279 C569.125,66.4997 568.9688,66.7654 568.9688,67.0622 C568.9688,67.3279 569.1094,67.5779 569.3281,67.7341 C569.4688,67.8591 569.7031,67.906 570.0938,67.906 L578.0938,67.906 L578.0938,65.3279 C578.0938,64.8904 578.0625,64.7497 577.9844,64.5935 C577.8125,64.3435 577.5313,64.1872 577.25,64.1872 C576.9844,64.1872 576.7188,64.2966 576.5469,64.5466 C576.4375,64.7029 576.4063,64.8435 576.4063,65.3279 L576.4063,66.2029 L572.0469,66.2029 L572.0469,63.781 Z " fill="#000000"/><text fill="#000000" font-family="sans-serif" font-size="14" lengthAdjust="spacing" textLength="29" x="589.75" y="67.7527">Sala</text><line style="stroke:#181818;stroke-width:0.5;" x1="548" x2="632" y1="78.906" y2="78.906"/><text fill="#000000" font-family="sans-serif" font-size="14" lengthAdjust="spacing" textLength="19" x="553" y="95.9011">-id</text><text fill="#000000" font-family="sans-serif" font-size="14" lengthAdjust="spacing" textLength="46" x="553" y="112.198">-porta</text><text fill="#000000" font-family="sans-serif" font-size="14" lengthAdjust="spacing" textLength="70" x="553" y="128.4949">-tamanho</text><text fill="#000000" font-family="sans-serif" font-size="14" lengthAdjust="spacing" textLength="74" x="553" y="144.7917">-descricao</text><text fill="#000000" font-family="sans-serif" font-size="14" lengthAdjust="spacing" textLength="61" x="553" y="161.0886">-posicao</text><text fill="#000000" font-family="sans-serif" font-size="14" lengthAdjust="spacing" textLength="36" x="553" y="177.3855">-tipo</text></g><!--class TipoDeSala--><g id="elem_TipoDeSala"><rect codeLine="52" fill="#F1F1F1" height="72.5938" id="TipoDeSala" rx="2.5" ry="2.5" style="stroke:#181818;stroke-width:0.5;" width="113" x="683.5" y="79.406"/><ellipse cx="698.5" cy="95.406" fill="#ADD1B2" rx="11" ry="11" style="stroke:#181818;stroke-width:1.0;"/><path d="M697.2969,96.281 L698.75,96.281 L698.75,96.3904 C698.75,96.7966 698.7813,96.9529 698.8594,97.1091 C699.0156,97.3591 699.2969,97.5154 699.5938,97.5154 C699.8438,97.5154 700.1094,97.3747 700.2656,97.156 C700.3906,96.9997 700.4219,96.8435 700.4219,96.3904 L700.4219,94.4685 C700.4219,94.3122 700.4219,94.2654 700.4063,94.1091 C700.3438,93.6404 700.0313,93.3279 699.5781,93.3279 C699.3281,93.3279 699.0625,93.4685 698.8906,93.6872 C698.7813,93.8591 698.75,94.0154 698.75,94.4685 L698.75,94.5935 L697.2969,94.5935 L697.2969,92.1872 L701.2813,92.1872 L701.2813,93.0466 C701.2813,93.4529 701.3125,93.6247 701.3906,93.781 C701.5625,94.031 701.8438,94.1872 702.125,94.1872 C702.3906,94.1872 702.6563,94.0466 702.8281,93.8279 C702.9375,93.656 702.9688,93.5154 702.9688,93.0466 L702.9688,90.4997 L695.3438,90.4997 C694.9063,90.4997 694.7813,90.5154 694.625,90.6091 C694.375,90.7654 694.2188,91.0622 694.2188,91.3435 C694.2188,91.6247 694.3594,91.8747 694.5781,92.0466 C694.7344,92.156 694.9219,92.1872 695.3438,92.1872 L695.5938,92.1872 L695.5938,98.7029 L695.3438,98.7029 C694.9375,98.7029 694.7813,98.7185 694.625,98.8279 C694.375,98.9997 694.2188,99.2654 694.2188,99.5622 C694.2188,99.8279 694.3594,100.0779 694.5781,100.2341 C694.7188,100.3591 694.9531,100.406 695.3438,100.406 L703.3438,100.406 L703.3438,97.8279 C703.3438,97.3904 703.3125,97.2497 703.2344,97.0935 C703.0625,96.8435 702.7813,96.6872 702.5,96.6872 C702.2344,96.6872 701.9688,96.7966 701.7969,97.0466 C701.6875,97.2029 701.6563,97.3435 701.6563,97.8279 L701.6563,98.7029 L697.2969,98.7029 L697.2969,96.281 Z " fill="#000000"/><text fill="#000000" font-family="sans-serif" font-size="14" lengthAdjust="spacing" textLength="81" x="712.5" y="100.2527">TipoDeSala</text><line style="stroke:#181818;stroke-width:0.5;" x1="684.5" x2="795.5" y1="111.406" y2="111.406"/><text fill="#000000" font-family="sans-serif" font-size="14" lengthAdjust="spacing" textLength="19" x="689.5" y="128.4011">-id</text><text fill="#000000" font-family="sans-serif" font-size="14" lengthAdjust="spacing" textLength="74" x="689.5" y="144.698">-descricao</text></g><!--class Tarefa--><g id="elem_Tarefa"><rect codeLine="72" fill="#F1F1F1" height="88.8906" id="Tarefa" rx="2.5" ry="2.5" style="stroke:#181818;stroke-width:0.5;" width="78" x="507" y="267.406"/><ellipse cx="522" cy="283.406" fill="#ADD1B2" rx="11" ry="11" style="stroke:#181818;stroke-width:1.0;"/><path d="M520.7969,284.281 L522.25,284.281 L522.25,284.3904 C522.25,284.7966 522.2813,284.9529 522.3594,285.1091 C522.5156,285.3591 522.7969,285.5154 523.0938,285.5154 C523.3438,285.5154 523.6094,285.3747 523.7656,285.156 C523.8906,284.9997 523.9219,284.8435 523.9219,284.3904 L523.9219,282.4685 C523.9219,282.3122 523.9219,282.2654 523.9063,282.1091 C523.8438,281.6404 523.5313,281.3279 523.0781,281.3279 C522.8281,281.3279 522.5625,281.4685 522.3906,281.6872 C522.2813,281.8591 522.25,282.0154 522.25,282.4685 L522.25,282.5935 L520.7969,282.5935 L520.7969,280.1872 L524.7813,280.1872 L524.7813,281.0466 C524.7813,281.4529 524.8125,281.6247 524.8906,281.781 C525.0625,282.031 525.3438,282.1872 525.625,282.1872 C525.8906,282.1872 526.1563,282.0466 526.3281,281.8279 C526.4375,281.656 526.4688,281.5154 526.4688,281.0466 L526.4688,278.4997 L518.8438,278.4997 C518.4063,278.4997 518.2813,278.5154 518.125,278.6091 C517.875,278.7654 517.7188,279.0622 517.7188,279.3435 C517.7188,279.6247 517.8594,279.8747 518.0781,280.0466 C518.2344,280.156 518.4219,280.1872 518.8438,280.1872 L519.0938,280.1872 L519.0938,286.7029 L518.8438,286.7029 C518.4375,286.7029 518.2813,286.7185 518.125,286.8279 C517.875,286.9997 517.7188,287.2654 517.7188,287.5622 C517.7188,287.8279 517.8594,288.0779 518.0781,288.2341 C518.2188,288.3591 518.4531,288.406 518.8438,288.406 L526.8438,288.406 L526.8438,285.8279 C526.8438,285.3904 526.8125,285.2497 526.7344,285.0935 C526.5625,284.8435 526.2813,284.6872 526,284.6872 C525.7344,284.6872 525.4688,284.7966 525.2969,285.0466 C525.1875,285.2029 525.1563,285.3435 525.1563,285.8279 L525.1563,286.7029 L520.7969,286.7029 L520.7969,284.281 Z " fill="#000000"/><text fill="#000000" font-family="sans-serif" font-size="14" lengthAdjust="spacing" textLength="46" x="536" y="288.2527">Tarefa</text><line style="stroke:#181818;stroke-width:0.5;" x1="508" x2="584" y1="299.406" y2="299.406"/><text fill="#000000" font-family="sans-serif" font-size="14" lengthAdjust="spacing" textLength="19" x="513" y="316.4011">-id</text><text fill="#000000" font-family="sans-serif" font-size="14" lengthAdjust="spacing" textLength="55" x="513" y="332.698">-estado</text><text fill="#000000" font-family="sans-serif" font-size="14" lengthAdjust="spacing" textLength="36" x="513" y="348.9949">-tipo</text></g><!--class TipoDeTarefa--><g id="elem_TipoDeTarefa"><rect codeLine="78" fill="#F1F1F1" height="72.5938" id="TipoDeTarefa" rx="2.5" ry="2.5" style="stroke:#181818;stroke-width:0.5;" width="130" x="635" y="275.406"/><ellipse cx="650" cy="291.406" fill="#ADD1B2" rx="11" ry="11" style="stroke:#181818;stroke-width:1.0;"/><path d="M648.7969,292.281 L650.25,292.281 L650.25,292.3904 C650.25,292.7966 650.2813,292.9529 650.3594,293.1091 C650.5156,293.3591 650.7969,293.5154 651.0938,293.5154 C651.3438,293.5154 651.6094,293.3747 651.7656,293.156 C651.8906,292.9997 651.9219,292.8435 651.9219,292.3904 L651.9219,290.4685 C651.9219,290.3122 651.9219,290.2654 651.9063,290.1091 C651.8438,289.6404 651.5313,289.3279 651.0781,289.3279 C650.8281,289.3279 650.5625,289.4685 650.3906,289.6872 C650.2813,289.8591 650.25,290.0154 650.25,290.4685 L650.25,290.5935 L648.7969,290.5935 L648.7969,288.1872 L652.7813,288.1872 L652.7813,289.0466 C652.7813,289.4529 652.8125,289.6247 652.8906,289.781 C653.0625,290.031 653.3438,290.1872 653.625,290.1872 C653.8906,290.1872 654.1563,290.0466 654.3281,289.8279 C654.4375,289.656 654.4688,289.5154 654.4688,289.0466 L654.4688,286.4997 L646.8438,286.4997 C646.4063,286.4997 646.2813,286.5154 646.125,286.6091 C645.875,286.7654 645.7188,287.0622 645.7188,287.3435 C645.7188,287.6247 645.8594,287.8747 646.0781,288.0466 C646.2344,288.156 646.4219,288.1872 646.8438,288.1872 L647.0938,288.1872 L647.0938,294.7029 L646.8438,294.7029 C646.4375,294.7029 646.2813,294.7185 646.125,294.8279 C645.875,294.9997 645.7188,295.2654 645.7188,295.5622 C645.7188,295.8279 645.8594,296.0779 646.0781,296.2341 C646.2188,296.3591 646.4531,296.406 646.8438,296.406 L654.8438,296.406 L654.8438,293.8279 C654.8438,293.3904 654.8125,293.2497 654.7344,293.0935 C654.5625,292.8435 654.2813,292.6872 654,292.6872 C653.7344,292.6872 653.4688,292.7966 653.2969,293.0466 C653.1875,293.2029 653.1563,293.3435 653.1563,293.8279 L653.1563,294.7029 L648.7969,294.7029 L648.7969,292.281 Z " fill="#000000"/><text fill="#000000" font-family="sans-serif" font-size="14" lengthAdjust="spacing" textLength="98" x="664" y="296.2527">TipoDeTarefa</text><line style="stroke:#181818;stroke-width:0.5;" x1="636" x2="764" y1="307.406" y2="307.406"/><text fill="#000000" font-family="sans-serif" font-size="14" lengthAdjust="spacing" textLength="19" x="641" y="324.4011">-id</text><text fill="#000000" font-family="sans-serif" font-size="14" lengthAdjust="spacing" textLength="74" x="641" y="340.698">-descricao</text></g><!--class Robot--><g id="elem_Robot"><rect codeLine="89" fill="#F1F1F1" height="154.0781" id="Robot" rx="2.5" ry="2.5" style="stroke:#181818;stroke-width:0.5;" width="110" x="347" y="234.906"/><ellipse cx="376.85" cy="250.906" fill="#ADD1B2" rx="11" ry="11" style="stroke:#181818;stroke-width:1.0;"/><path d="M375.6469,251.781 L377.1,251.781 L377.1,251.8904 C377.1,252.2966 377.1313,252.4529 377.2094,252.6091 C377.3656,252.8591 377.6469,253.0154 377.9438,253.0154 C378.1938,253.0154 378.4594,252.8747 378.6156,252.656 C378.7406,252.4997 378.7719,252.3435 378.7719,251.8904 L378.7719,249.9685 C378.7719,249.8122 378.7719,249.7654 378.7563,249.6091 C378.6938,249.1404 378.3813,248.8279 377.9281,248.8279 C377.6781,248.8279 377.4125,248.9685 377.2406,249.1872 C377.1313,249.3591 377.1,249.5154 377.1,249.9685 L377.1,250.0935 L375.6469,250.0935 L375.6469,247.6872 L379.6313,247.6872 L379.6313,248.5466 C379.6313,248.9529 379.6625,249.1247 379.7406,249.281 C379.9125,249.531 380.1938,249.6872 380.475,249.6872 C380.7406,249.6872 381.0063,249.5466 381.1781,249.3279 C381.2875,249.156 381.3188,249.0154 381.3188,248.5466 L381.3188,245.9997 L373.6938,245.9997 C373.2563,245.9997 373.1313,246.0154 372.975,246.1091 C372.725,246.2654 372.5688,246.5622 372.5688,246.8435 C372.5688,247.1247 372.7094,247.3747 372.9281,247.5466 C373.0844,247.656 373.2719,247.6872 373.6938,247.6872 L373.9438,247.6872 L373.9438,254.2029 L373.6938,254.2029 C373.2875,254.2029 373.1313,254.2185 372.975,254.3279 C372.725,254.4997 372.5688,254.7654 372.5688,255.0622 C372.5688,255.3279 372.7094,255.5779 372.9281,255.7341 C373.0688,255.8591 373.3031,255.906 373.6938,255.906 L381.6938,255.906 L381.6938,253.3279 C381.6938,252.8904 381.6625,252.7497 381.5844,252.5935 C381.4125,252.3435 381.1313,252.1872 380.85,252.1872 C380.5844,252.1872 380.3188,252.2966 380.1469,252.5466 C380.0375,252.7029 380.0063,252.8435 380.0063,253.3279 L380.0063,254.2029 L375.6469,254.2029 L375.6469,251.781 Z " fill="#000000"/><text fill="#000000" font-family="sans-serif" font-size="14" lengthAdjust="spacing" textLength="45" x="394.15" y="255.7527">Robot</text><line style="stroke:#181818;stroke-width:0.5;" x1="348" x2="456" y1="266.906" y2="266.906"/><text fill="#000000" font-family="sans-serif" font-size="14" lengthAdjust="spacing" textLength="19" x="353" y="283.9011">-id</text><text fill="#000000" font-family="sans-serif" font-size="14" lengthAdjust="spacing" textLength="98" x="353" y="300.198">-numeroSerie</text><text fill="#000000" font-family="sans-serif" font-size="14" lengthAdjust="spacing" textLength="54" x="353" y="316.4949">-codigo</text><text fill="#000000" font-family="sans-serif" font-size="14" lengthAdjust="spacing" textLength="76" x="353" y="332.7917">-nickname</text><text fill="#000000" font-family="sans-serif" font-size="14" lengthAdjust="spacing" textLength="50" x="353" y="349.0886">-marca</text><text fill="#000000" font-family="sans-serif" font-size="14" lengthAdjust="spacing" textLength="55" x="353" y="365.3855">-estado</text><text fill="#000000" font-family="sans-serif" font-size="14" lengthAdjust="spacing" textLength="36" x="353" y="381.6824">-tipo</text></g><!--class TipoDeRobot--><g id="elem_TipoDeRobot"><rect codeLine="101" fill="#F1F1F1" height="88.8906" id="TipoDeRobot" rx="2.5" ry="2.5" style="stroke:#181818;stroke-width:0.5;" width="129" x="337.5" y="438.906"/><ellipse cx="352.5" cy="454.906" fill="#ADD1B2" rx="11" ry="11" style="stroke:#181818;stroke-width:1.0;"/><path d="M351.2969,455.781 L352.75,455.781 L352.75,455.8904 C352.75,456.2966 352.7813,456.4529 352.8594,456.6091 C353.0156,456.8591 353.2969,457.0154 353.5938,457.0154 C353.8438,457.0154 354.1094,456.8747 354.2656,456.656 C354.3906,456.4997 354.4219,456.3435 354.4219,455.8904 L354.4219,453.9685 C354.4219,453.8122 354.4219,453.7654 354.4063,453.6091 C354.3438,453.1404 354.0313,452.8279 353.5781,452.8279 C353.3281,452.8279 353.0625,452.9685 352.8906,453.1872 C352.7813,453.3591 352.75,453.5154 352.75,453.9685 L352.75,454.0935 L351.2969,454.0935 L351.2969,451.6872 L355.2813,451.6872 L355.2813,452.5466 C355.2813,452.9529 355.3125,453.1247 355.3906,453.281 C355.5625,453.531 355.8438,453.6872 356.125,453.6872 C356.3906,453.6872 356.6563,453.5466 356.8281,453.3279 C356.9375,453.156 356.9688,453.0154 356.9688,452.5466 L356.9688,449.9997 L349.3438,449.9997 C348.9063,449.9997 348.7813,450.0154 348.625,450.1091 C348.375,450.2654 348.2188,450.5622 348.2188,450.8435 C348.2188,451.1247 348.3594,451.3747 348.5781,451.5466 C348.7344,451.656 348.9219,451.6872 349.3438,451.6872 L349.5938,451.6872 L349.5938,458.2029 L349.3438,458.2029 C348.9375,458.2029 348.7813,458.2185 348.625,458.3279 C348.375,458.4997 348.2188,458.7654 348.2188,459.0622 C348.2188,459.3279 348.3594,459.5779 348.5781,459.7341 C348.7188,459.8591 348.9531,459.906 349.3438,459.906 L357.3438,459.906 L357.3438,457.3279 C357.3438,456.8904 357.3125,456.7497 357.2344,456.5935 C357.0625,456.3435 356.7813,456.1872 356.5,456.1872 C356.2344,456.1872 355.9688,456.2966 355.7969,456.5466 C355.6875,456.7029 355.6563,456.8435 355.6563,457.3279 L355.6563,458.2029 L351.2969,458.2029 L351.2969,455.781 Z " fill="#000000"/><text fill="#000000" font-family="sans-serif" font-size="14" lengthAdjust="spacing" textLength="97" x="366.5" y="459.7527">TipoDeRobot</text><line style="stroke:#181818;stroke-width:0.5;" x1="338.5" x2="465.5" y1="470.906" y2="470.906"/><text fill="#000000" font-family="sans-serif" font-size="14" lengthAdjust="spacing" textLength="19" x="343.5" y="487.9011">-id</text><text fill="#000000" font-family="sans-serif" font-size="14" lengthAdjust="spacing" textLength="86" x="343.5" y="504.198">-designacao</text><text fill="#000000" font-family="sans-serif" font-size="14" lengthAdjust="spacing" textLength="115" x="343.5" y="520.4949">-tarefas [tarefa]</text></g><!--link Edificio to Piso--><g id="link_Edificio_Piso"><path codeLine="107" d="M117.601,55.338 C132.642,41.755 150.152,29.214 169,21.906 C210.024,6 225.909,9.086 268,21.906 C291.525,29.071 314.685,41.655 335.186,55.329 " fill="none" id="Edificio-Piso" style="stroke:#181818;stroke-width:1.0;"/><text fill="#000000" font-family="sans-serif" font-size="13" lengthAdjust="spacing" textLength="8" x="115.1049" y="44.5142">1</text><text fill="#000000" font-family="sans-serif" font-size="13" lengthAdjust="spacing" textLength="7" x="319.3622" y="44.5042">*</text></g><!--link Edificio to Elevador--><g id="link_Edificio_Elevador"><path codeLine="108" d="M119.191,115.906 C135.956,115.906 152.721,115.906 169.486,115.906 " fill="none" id="Edificio-Elevador" style="stroke:#181818;stroke-width:1.0;"/><text fill="#000000" font-family="sans-serif" font-size="13" lengthAdjust="spacing" textLength="8" x="126.876" y="111.9415">1</text><text fill="#000000" font-family="sans-serif" font-size="13" lengthAdjust="spacing" textLength="8" x="153.6261" y="111.8673">1</text></g><!--link Edificio to Passagem--><g id="link_Edificio_Passagem"><path codeLine="109" d="M79.1936,176.431 C86.353,208.731 94.9645,247.583 101.0863,275.202 " fill="none" id="Edificio-Passagem" style="stroke:#181818;stroke-width:1.0;"/><text fill="#000000" font-family="sans-serif" font-size="13" lengthAdjust="spacing" textLength="8" x="72.3141" y="196.767">1</text><text fill="#000000" font-family="sans-serif" font-size="13" lengthAdjust="spacing" textLength="7" x="92.0532" y="264.4431">*</text></g><!--link Elevador to Piso--><g id="link_Elevador_Piso"><path codeLine="110" d="M268.834,115.906 C285.505,115.906 302.176,115.906 318.847,115.906 " fill="none" id="Elevador-Piso" style="stroke:#181818;stroke-width:1.0;"/><text fill="#000000" font-family="sans-serif" font-size="13" lengthAdjust="spacing" textLength="8" x="276.4044" y="111.9144">1</text><text fill="#000000" font-family="sans-serif" font-size="13" lengthAdjust="spacing" textLength="7" x="303.8846" y="112.3133">*</text></g><!--link Sala to Tarefa--><g id="link_Sala_Tarefa"><path codeLine="111" d="M574.549,185.03 C568.359,212.325 561.407,242.976 555.913,267.198 " fill="none" id="Sala-Tarefa" style="stroke:#181818;stroke-width:1.0;"/><text fill="#000000" font-family="sans-serif" font-size="13" lengthAdjust="spacing" textLength="8" x="564.6343" y="204.6569">1</text><text fill="#000000" font-family="sans-serif" font-size="13" lengthAdjust="spacing" textLength="7" x="549.895" y="256.2891">*</text></g><!--link Sala to TipoDeSala--><g id="link_Sala_TipoDeSala"><path codeLine="112" d="M633.066,115.906 C649.775,115.906 666.483,115.906 683.192,115.906 " fill="none" id="Sala-TipoDeSala" style="stroke:#181818;stroke-width:1.0;"/><text fill="#000000" font-family="sans-serif" font-size="13" lengthAdjust="spacing" textLength="7" x="641.0695" y="111.714">*</text><text fill="#000000" font-family="sans-serif" font-size="13" lengthAdjust="spacing" textLength="8" x="667.401" y="112.0465">1</text></g><!--link Piso to Tarefa--><g id="link_Piso_Tarefa"><path codeLine="113" d="M450.342,176.431 C471.18,205.724 495.85,240.406 514.918,267.21 " fill="none" id="Piso-Tarefa" style="stroke:#181818;stroke-width:1.0;"/><text fill="#000000" font-family="sans-serif" font-size="13" lengthAdjust="spacing" textLength="8" x="447.0149" y="196.767">1</text><text fill="#000000" font-family="sans-serif" font-size="13" lengthAdjust="spacing" textLength="7" x="502.6226" y="256.3029">*</text></g><!--link Tarefa to TipoDeTarefa--><g id="link_Tarefa_TipoDeTarefa"><path codeLine="114" d="M585.102,311.906 C601.708,311.906 618.314,311.906 634.921,311.906 " fill="none" id="Tarefa-TipoDeTarefa" style="stroke:#181818;stroke-width:1.0;"/><text fill="#000000" font-family="sans-serif" font-size="13" lengthAdjust="spacing" textLength="7" x="592.9567" y="307.6124">*</text><text fill="#000000" font-family="sans-serif" font-size="13" lengthAdjust="spacing" textLength="8" x="618.9337" y="308.1369">1</text></g><!--link Robot to Tarefa--><g id="link_Robot_Tarefa"><path codeLine="115" d="M457.125,311.906 C473.673,311.906 490.222,311.906 506.77,311.906 " fill="none" id="Robot-Tarefa" style="stroke:#181818;stroke-width:1.0;"/><text fill="#000000" font-family="sans-serif" font-size="13" lengthAdjust="spacing" textLength="8" x="465.0699" y="307.9688">1</text><text fill="#000000" font-family="sans-serif" font-size="13" lengthAdjust="spacing" textLength="7" x="491.8917" y="307.6124">*</text></g><!--link Piso to Passagem--><g id="link_Piso_Passagem"><path codeLine="116" d="M318.695,174.85 C268.448,207.452 207.309,247.12 164.045,275.191 " fill="none" id="Piso-Passagem" style="stroke:#181818;stroke-width:1.0;"/><text fill="#000000" font-family="sans-serif" font-size="13" lengthAdjust="spacing" textLength="8" x="302.9682" y="176.1625">0</text><text fill="#000000" font-family="sans-serif" font-size="13" lengthAdjust="spacing" textLength="7" x="166.2265" y="264.4301">*</text></g><!--link Piso to Sala--><g id="link_Piso_Sala"><path codeLine="117" d="M497.223,115.906 C513.773,115.906 530.323,115.906 546.873,115.906 " fill="none" id="Piso-Sala" style="stroke:#181818;stroke-width:1.0;"/><text fill="#000000" font-family="sans-serif" font-size="13" lengthAdjust="spacing" textLength="8" x="504.943" y="112.3372">1</text><text fill="#000000" font-family="sans-serif" font-size="13" lengthAdjust="spacing" textLength="7" x="531.859" y="111.714">*</text></g><!--link Robot to TipoDeRobot--><g id="link_Robot_TipoDeRobot"><path codeLine="118" d="M402,389.227 C402,406.098 402,423.419 402,438.4799 " fill="none" id="Robot-TipoDeRobot" style="stroke:#181818;stroke-width:1.0;"/><text fill="#000000" font-family="sans-serif" font-size="13" lengthAdjust="spacing" textLength="7" x="394.6773" y="409.1159">*</text><text fill="#000000" font-family="sans-serif" font-size="13" lengthAdjust="spacing" textLength="8" x="393.4125" y="427.8646">1</text></g><!--SRC=[XLTDRnit4BtlhnZeid4WoKvRzyE70auR52bQ98rxQ17qGEsEP2Qxomt95LmN1VfNaXu27teoUkbL_wI_f6z8xeTa1xr8AouvCtppviqel_I-TMV7nssb6j_LrR8mzN5HAUSMfLORg-hiKfTCDVjBKxhClTPDgx1COTEvzrQlEizF2zDSw6kcaycMnfJikANJwQ9LpUkqcEM5rSfILnENUgqBRUR4LrotbJoa9Pezdiq9SSc-njHCfiLoeohYjAnePNdB17Umk7k_-zFG0xvQpcbMCjnwLNFZ3TuJDnjkBXNyacxMnjQxjruNQdQ4doKUcjAGebBZW1CpU7-buG172rKgQhKpn3LvjhLnONbtKtK08tbyT49N-3ZASeDNjwNUmAyPRxEx8REoUgFyxjRAXPlUYQ5J-B2gW6rsSwhOMvZ5jVH6UuEL5e1AW00RUuXTgtRl4OMOO6t4PG3eq5_2Qz_NoSGPgMgjcgxUtLXT69Vb4Sb2cG_PGbYUws1G1NiVdKwZpu2tzh_Ia_xeRzc2T8cFmWWaU918yJLumhE0-xsw4Y9blmiz1iJXEMxqHhZG5EmxLKbM6R1mrMTJnUINmCqfIGeIf49sc3PgfHlsk2rVQUVbR80kffHSfwWoXQhqTRGofnLk28QPw67l9N21dOgtgZG288U5mbZBSK4S5-nWMk65wRoL0u1ZznVmSCiUeUVYVK2dXpg1SOWFIaw1luvUfiVw5m6g1pk5Cp6NLfxUOrkCu2iOoBzAWK_2Xb7BSUSPdSSrl3qdgMDwB2dH6oH15X_7nNDQwL9RZXJ9Se5lIA6GjuxGQqlRtLlKe1klD8zRfPY3hO3OL1SYorqzuUF_c8o6e1hxjWHInFocOoda20LUWRQ14KDY4i9JwZOD5nwNevTZO2E8XVAyCNQa231JWOVqu9j4lZcTDsljMI6YENsdLiOEIl1CmZp2JKT5ooUI9jeeaZOz9E3dJqPDmyyVa1DTgf9d_Kqk98BX5gs17k8RegYQopiKCouzUTsQ2Rb-nC-lUT_KU31og77e5JP2Q-ZfnPFdfCet7HX1rgoC3rLH6ks2SNU6GqJ__l5EtceqXREu3Hfrk-Kgc77eFMOhSkmL0JIrtTq4CqYhaogEscoDb7pIno1VKgrsuOGs-tMvLuQWnfxLQKMF_8_-mEV-t1og1-sG98CKZZSIQRVIeib2OxUaP-ak4XDfcq8UB4n87enbkTlTJaBP3xemAxO-1bAXTqH-nGZ7oppASlXrFPekrOUq2jquZzI9sOIQYmMm5Y6jmVyjMuT5hool5QhHA-sY-6tHVghTkwRG4Z3yrorV0tNWt8SOO4G3LOFc1GuBzOzxsOqtNdK0o1w7q3Unzsjf90z0Im3SD_yk26_enX6urffNxACdCOrEpJv9nPjEbQZl5KQBmXmj1rPXiU78g_1ubr2GbDH4KLl0ISE1sYV8VgyGJY-p_Dbe-o31hP51Ow9WSQ4S7ILkuch2pWdviXpFSaadkbHfb3JPS4dC6jfh96z9vqEAWhm8eIMIc6ihh70yIE4aYrc-LjSoCqJW0vFCAdYRJpCy9uM2TQ8uVySkXka7AZX7vsUhnkM11eZx5P8HUcp2KAONziKW7I7WILS25yiFIipXxdsH2KtYHQeivpeTfiBTFpNRG1Kd8qoOWDPg9SUGEOgPBqLG1Hq0e4C8mXoX6F8WaoWqAzOi4fsgP4d9PNmXFQ-KQA7zSXwa3LHDSrvWGAEBrmq6JaajPcD9cymFg8corWtCMX4OCVmSfwUCZpxWh5QsKFHJc6xltktHHnz_SlhfPs7-6cVCMGk_R1Sd9oUFPYJwEmGoUn7a0wkDN1Xq77hYWSkVF-1I_7t-nQ57nyNYV76Fls-LCyqiorNBZUfBg9uelvZkQGm1lSJ4K2P5CXDPbtnreL_PipqPufx7FOqBByMHvIcXaitmVq6ynVuGxjapGAYZfSMCsRH2Xaha1TywL9SVzP2arWwiXS97_eeEcvR3RP5ZJ456BC56_sln9OqfxXT30zapq_iRniD8zQ4OCACZCnUeCjwRfHFqU0o9lA_8f2dgJQDGIR7F1lMIA7ifWm05xsU7ady0Dh3UBzc384T7OSo80BwC3s5I6luLp42T1SqUpi8OV6STd_rCU- -PDA5bm-1xO2zCAs4jBaPfISiFUnVZP9E5ONmqalOdHJeyaTx6ozyv54sT3Bw7O0zy1B_9niEuU_0Gbly3]--></g></svg>