<?xml version="1.0" encoding="UTF-8" standalone="no"?><svg xmlns="http://www.w3.org/2000/svg" xmlns:xlink="http://www.w3.org/1999/xlink" contentStyleType="text/css" height="1329px" preserveAspectRatio="none" style="width:250px;height:1329px;background:#FFFFFF;" version="1.1" viewBox="0 0 250 1329" width="250px" zoomAndPan="magnify"><defs/><g><!--MD5=[a79645e74fdddf168a098e501fbfe8e0]
cluster c2--><g id="cluster_c2"><rect fill="none" height="1316" rx="2.5" ry="2.5" style="stroke:#181818;stroke-width:1.0;" width="237" x="7" y="7"/><rect fill="none" height="10" style="stroke:#181818;stroke-width:1.0;" width="15" x="224" y="12"/><rect fill="none" height="2" style="stroke:#181818;stroke-width:1.0;" width="4" x="222" y="14"/><rect fill="none" height="2" style="stroke:#181818;stroke-width:1.0;" width="4" x="222" y="18"/><text fill="#000000" font-family="sans-serif" font-size="14" font-weight="bold" lengthAdjust="spacing" textLength="137" x="57" y="32.9951">&lt;&lt;component&gt;&gt;</text><text fill="#000000" font-family="sans-serif" font-size="14" font-weight="bold" lengthAdjust="spacing" textLength="143" x="54" y="49.292">&lt;&lt;Context(C4)&gt;&gt;</text><text fill="#000000" font-family="sans-serif" font-size="14" font-weight="bold" lengthAdjust="spacing" textLength="100" x="75.5" y="65.5889">RobDroneGo</text><text fill="#000000" font-family="sans-serif" font-size="14" font-weight="bold" lengthAdjust="spacing" textLength="71" x="90" y="81.8857">FrontEnd</text></g><!--MD5=[013d08b09368979f9e439724448b2f30]
entity ictrl--><g id="elem_ictrl"><ellipse cx="141" cy="320" fill="#F1F1F1" rx="8" ry="8" style="stroke:#181818;stroke-width:0.5;"/><text fill="#000000" font-family="sans-serif" font-size="14" lengthAdjust="spacing" textLength="70" x="106" y="349.9951">IController</text></g><!--MD5=[07a8e3d737531d8d0d512dbe2e0727e6]
entity iser--><g id="elem_iser"><ellipse cx="134" cy="699" fill="#F1F1F1" rx="8" ry="8" style="stroke:#181818;stroke-width:0.5;"/><text fill="#000000" font-family="sans-serif" font-size="14" lengthAdjust="spacing" textLength="53" x="107.5" y="728.9951">IService</text></g><!--MD5=[6e3613e32beee7422e6d43c39f9fbf55]
entity imodel--><g id="elem_imodel"><ellipse cx="134" cy="1078" fill="#F1F1F1" rx="8" ry="8" style="stroke:#181818;stroke-width:0.5;"/><text fill="#000000" font-family="sans-serif" font-size="14" lengthAdjust="spacing" textLength="45" x="111.5" y="1107.9951">IModel</text></g><!--MD5=[bf2f9096aec1c19dd7dbe35a7c751e39]
entity view--><g id="elem_view"><rect fill="#F1F1F1" height="78.8906" rx="2.5" ry="2.5" style="stroke:#181818;stroke-width:0.5;" width="169" x="56.5" y="91"/><rect fill="#F1F1F1" height="10" style="stroke:#181818;stroke-width:0.5;" width="15" x="205.5" y="96"/><rect fill="#F1F1F1" height="2" style="stroke:#181818;stroke-width:0.5;" width="4" x="203.5" y="98"/><rect fill="#F1F1F1" height="2" style="stroke:#181818;stroke-width:0.5;" width="4" x="203.5" y="102"/><text fill="#000000" font-family="sans-serif" font-size="14" lengthAdjust="spacing" textLength="98" x="71.5" y="123.9951">«component»</text><text fill="#000000" font-family="sans-serif" font-size="14" lengthAdjust="spacing" textLength="129" x="71.5" y="140.292">«Component(C4)»</text><text fill="#000000" font-family="sans-serif" font-size="14" lengthAdjust="spacing" textLength="32" x="71.5" y="156.5889">View</text></g><!--MD5=[9b5d37bdb7be2cac1b39a82444f5f5a6]
entity ctrl--><g id="elem_ctrl"><rect fill="#F1F1F1" height="78.8906" rx="2.5" ry="2.5" style="stroke:#181818;stroke-width:0.5;" width="169" x="56.5" y="470"/><rect fill="#F1F1F1" height="10" style="stroke:#181818;stroke-width:0.5;" width="15" x="205.5" y="475"/><rect fill="#F1F1F1" height="2" style="stroke:#181818;stroke-width:0.5;" width="4" x="203.5" y="477"/><rect fill="#F1F1F1" height="2" style="stroke:#181818;stroke-width:0.5;" width="4" x="203.5" y="481"/><text fill="#000000" font-family="sans-serif" font-size="14" lengthAdjust="spacing" textLength="98" x="71.5" y="502.9951">«component»</text><text fill="#000000" font-family="sans-serif" font-size="14" lengthAdjust="spacing" textLength="129" x="71.5" y="519.292">«Component(C4)»</text><text fill="#000000" font-family="sans-serif" font-size="14" lengthAdjust="spacing" textLength="67" x="71.5" y="535.5889">Controller</text></g><!--MD5=[9d986ba0f27b6c53af29a9efbb55ef40]
entity ser--><g id="elem_ser"><rect fill="#F1F1F1" height="78.8906" rx="2.5" ry="2.5" style="stroke:#181818;stroke-width:0.5;" width="169" x="22.5" y="849"/><rect fill="#F1F1F1" height="10" style="stroke:#181818;stroke-width:0.5;" width="15" x="171.5" y="854"/><rect fill="#F1F1F1" height="2" style="stroke:#181818;stroke-width:0.5;" width="4" x="169.5" y="856"/><rect fill="#F1F1F1" height="2" style="stroke:#181818;stroke-width:0.5;" width="4" x="169.5" y="860"/><text fill="#000000" font-family="sans-serif" font-size="14" lengthAdjust="spacing" textLength="98" x="37.5" y="881.9951">«component»</text><text fill="#000000" font-family="sans-serif" font-size="14" lengthAdjust="spacing" textLength="129" x="37.5" y="898.292">«Component(C4)»</text><text fill="#000000" font-family="sans-serif" font-size="14" lengthAdjust="spacing" textLength="50" x="37.5" y="914.5889">Service</text></g><!--MD5=[76aeba0ab875879ea5d21554d0007a3a]
entity model--><g id="elem_model"><rect fill="#F1F1F1" height="78.8906" rx="2.5" ry="2.5" style="stroke:#181818;stroke-width:0.5;" width="169" x="49.5" y="1228"/><rect fill="#F1F1F1" height="10" style="stroke:#181818;stroke-width:0.5;" width="15" x="198.5" y="1233"/><rect fill="#F1F1F1" height="2" style="stroke:#181818;stroke-width:0.5;" width="4" x="196.5" y="1235"/><rect fill="#F1F1F1" height="2" style="stroke:#181818;stroke-width:0.5;" width="4" x="196.5" y="1239"/><text fill="#000000" font-family="sans-serif" font-size="14" lengthAdjust="spacing" textLength="98" x="64.5" y="1260.9951">«component»</text><text fill="#000000" font-family="sans-serif" font-size="14" lengthAdjust="spacing" textLength="129" x="64.5" y="1277.292">«Component(C4)»</text><text fill="#000000" font-family="sans-serif" font-size="14" lengthAdjust="spacing" textLength="42" x="64.5" y="1293.5889">Model</text></g><!--MD5=[edab55b9111e5ba063208419607b1d0d]
link view to ictrl--><g id="link_view_ictrl"><path d="M141,170.35 C141,210.12 141,270.25 141,300.39 " fill="none" id="view-to-ictrl" style="stroke:#181818;stroke-width:1.0;"/><path d="M149.4572,307.6118 A9,9 0 0 0 132.5428 307.6118" fill="none" style="stroke:#181818;stroke-width:1.5;"/></g><!--MD5=[a1ccd68bcd43f1990aa5bf03eb84b692]
link ictrl to ctrl--><g id="link_ictrl_ctrl"><path d="M141,329.06 C141,352.96 141,424.62 141,469.82 " fill="none" id="ictrl-ctrl" style="stroke:#181818;stroke-width:1.0;"/></g><!--MD5=[dbd788fd74081b65e0ef4eb3b66f3c86]
link ctrl to iser--><g id="link_ctrl_iser"><path d="M139.55,549.35 C138.06,589.12 135.82,649.25 134.69,679.39 " fill="none" id="ctrl-to-iser" style="stroke:#181818;stroke-width:1.0;"/><path d="M142.8758,686.9283 A9,9 0 0 0 125.973 686.2996" fill="none" style="stroke:#181818;stroke-width:1.5;"/></g><!--MD5=[688cc4c5bcf53ee9ce0017c8d0c6c4c1]
link iser to ser--><g id="link_iser_ser"><path d="M132.84,708.06 C129.4,731.96 119.08,803.62 112.57,848.82 " fill="none" id="iser-ser" style="stroke:#181818;stroke-width:1.0;"/></g><!--MD5=[def930e933dcda497ec66c8f76a96882]
link ctrl to imodel--><g id="link_ctrl_imodel"><path d="M170.6,549.11 C195.47,585.46 227,642.49 227,698 C227,698 227,698 227,889.5 C227,959.58 174.21,1030.49 148.18,1061.2 " fill="none" id="ctrl-to-imodel" style="stroke:#181818;stroke-width:1.0;"/><path d="M150.0122,1071.9855 A9,9 0 0 0 137.2469 1060.8883" fill="none" style="stroke:#181818;stroke-width:1.5;"/></g><!--MD5=[0841d7c76800534551b68e7fd67e4252]
link imodel to model--><g id="link_imodel_model"><path d="M134,1087.06 C134,1110.96 134,1182.62 134,1227.82 " fill="none" id="imodel-model" style="stroke:#181818;stroke-width:1.0;"/></g><!--MD5=[c5c733aa97ad23979e792339f61b5afd]
link ser to imodel--><g id="link_ser_imodel"><path d="M112.59,928.35 C118.35,968.3 127.06,1028.78 131.38,1058.79 " fill="none" id="ser-to-imodel" style="stroke:#181818;stroke-width:1.0;"/><path d="M140.7309,1064.4355 A9,9 0 0 0 123.9898 1066.8512" fill="none" style="stroke:#181818;stroke-width:1.5;"/></g><!--MD5=[fb7ff30e4a448dab59e615bbc1b83cab]
@startuml
component "<<component>>\n<<Context(C4)>>\nRobDroneGo\nFrontEnd" as c2 {

  component "<<component>>\n<<Component(C4)>>\nView" as view{
  }
  component "<<component>>\n<<Component(C4)>>\nController" as ctrl{
  }
  
  component "<<component>>\n<<Component(C4)>>\nService" as ser{
    
  }
  
  component "<<component>>\n<<Component(C4)>>\nModel" as model{
    
  }
  
interface IController as ictrl
interface IService as iser
interface IModel as imodel

}















view - - -( ictrl
ictrl - - - ctrl
ctrl - - -( iser
iser - - - ser  
ctrl - - -( imodel 
imodel - - - model
ser - - -( imodel
@enduml

PlantUML version 1.2022.7(Mon Aug 22 17:01:30 UTC 2022)
(GPL source distribution)
Java Runtime: OpenJDK Runtime Environment
JVM: OpenJDK 64-Bit Server VM
Default Encoding: UTF-8
Language: en
Country: null
--></g></svg>